Coordinates
version=1
nRows=32
nColumns=12
inDegrees=yes

Units are S.I. units (second, meters, Newtons, ...)
Angles are in degrees

endheader
time	SC_y	SC_z	SC_x	AC_y	AC_z	AC_x	GH_y	GH_z	GH_yy	EL_x	PS_y
       0.0              -16.95          37.22          4.943          60.09         -8.019          18.73          166.0         -9.738          18.38          55.65          20.34
   0.03442              -16.95          37.22          4.944          60.09         -8.017          18.72          165.9         -9.733          18.37          55.65          20.36
   0.06884              -16.95          37.22          4.946          60.09         -8.015          18.72          165.9         -9.728          18.36          55.65          20.37
    0.1033              -16.95          37.22          4.947          60.09         -8.013          18.72          165.8         -9.723          18.34          55.65          20.39
    0.1377              -16.95          37.22          4.949          60.09         -8.011          18.71          165.8         -9.718          18.33          55.66          20.41
    0.1721              -16.95          37.22          4.951          60.09         -8.008          18.71          165.7         -9.712          18.31          55.66          20.43
    0.2065              -16.95          37.21          4.953           60.1         -8.006           18.7          165.7         -9.705           18.3          55.66          20.45
    0.2409              -16.95          37.21          4.955           60.1         -8.003          18.69          165.6         -9.698          18.28          55.66          20.47
    0.2754              -16.95          37.21          4.958           60.1           -8.0          18.69          165.5         -9.691          18.26          55.67           20.5
    0.3098              -16.95          37.21           4.96           60.1         -7.997          18.68          165.4         -9.683          18.24          55.67          20.52
    0.3442              -16.95          37.21          4.963           60.1         -7.993          18.67          165.4         -9.675          18.22          55.68          20.55
    0.3786              -16.95           37.2          4.966          60.11         -7.989          18.67          165.3         -9.666          18.19          55.68          20.58
     0.413              -16.95           37.2          4.969          60.11         -7.985          18.66          165.2         -9.656          18.17          55.68          20.61
    0.4475              -16.95           37.2          4.972          60.11         -7.981          18.65          165.1         -9.646          18.14          55.69          20.65
    0.4819              -16.95           37.2          4.976          60.12         -7.976          18.64          164.9         -9.634          18.11          55.69          20.68
    0.5163              -16.95          37.19           4.98          60.12         -7.971          18.63          164.8         -9.622          18.08           55.7          20.73
    0.5507              -16.94          37.19          4.984          60.12         -7.966          18.62          164.7         -9.609          18.04          55.71          20.77
    0.5851              -16.94          37.18          4.989          60.13          -7.96          18.61          164.5         -9.594           18.0          55.71          20.82
    0.6196              -16.94          37.18          4.994          60.13         -7.953          18.59          164.4         -9.578          17.96          55.72          20.87
     0.654              -16.94          37.18          4.999          60.14         -7.946          18.58          164.2         -9.561          17.92          55.73          20.93
    0.6884              -16.94          37.17          5.005          60.14         -7.938          18.56          164.0         -9.541          17.86          55.74          20.99
    0.7228              -16.94          37.17          5.012          60.15         -7.929          18.55          163.8          -9.52          17.81          55.75          21.06
    0.7572              -16.94          37.16           5.02          60.15         -7.919          18.53          163.6         -9.497          17.75          55.76          21.14
    0.7917              -16.93          37.15          5.028          60.16         -7.909           18.5          163.3         -9.471          17.68          55.77          21.23
    0.8261              -16.93          37.14          5.037          60.17         -7.897          18.48          163.0         -9.442           17.6          55.78          21.32
    0.8605              -16.93          37.14          5.047          60.18         -7.884          18.45          162.7          -9.41          17.52           55.8          21.43
    0.8949              -16.92          37.13          5.059          60.19         -7.869          18.42          162.3         -9.374          17.43          55.81          21.55
    0.9293              -16.92          37.12          5.072           60.2         -7.852          18.39          161.9         -9.334          17.32          55.83          21.68
    0.9638              -16.92           37.1          5.086          60.21         -7.833          18.35          161.5         -9.288           17.2          55.85          21.83
    0.9982              -16.91          37.09          5.103          60.22         -7.812          18.31          160.9         -9.237          17.06          55.88           22.0
     1.033              -16.91          37.07          5.122          60.24         -7.787          18.26          160.3         -9.178          16.91           55.9           22.2
     1.067               -16.9          37.06          5.144          60.26         -7.759           18.2          159.7          -9.11          16.73          55.94          22.42
